<?xml version="1.0" standalone="no"?>
<!DOCTYPE svg PUBLIC "-//W3C//DTD SVG 20010904//EN"
 "http://www.w3.org/TR/2001/REC-SVG-20010904/DTD/svg10.dtd">
<svg version="1.0" xmlns="http://www.w3.org/2000/svg"
 width="500.000000pt" height="500.000000pt" viewBox="0 0 500.000000 500.000000"
 preserveAspectRatio="xMidYMid meet">
<metadata>
Created by potrace 1.14, written by Peter Selinger 2001-2017
</metadata>
<g transform="translate(0.000000,500.000000) scale(0.100000,-0.100000)"
fill="#000000" stroke="none">
<path d="M0 2500 l0 -2500 2500 0 2500 0 0 2500 0 2500 -2500 0 -2500 0 0
-2500z m2661 1474 c179 -34 333 -118 462 -253 92 -97 157 -205 199 -331 39
-122 50 -301 24 -426 -64 -317 -292 -567 -606 -666 -67 -20 -94 -23 -245 -23
-159 1 -175 3 -250 29 -120 41 -194 81 -283 151 -104 82 -170 165 -232 290
-74 151 -85 201 -84 390 0 153 1 164 32 255 91 271 312 488 577 565 128 38
273 44 406 19z m1389 -1930 c59 -27 107 -76 136 -139 23 -49 24 -56 24 -365 0
-309 -1 -316 -24 -365 -28 -62 -77 -111 -136 -139 l-45 -21 -1492 -3 c-1484
-2 -1492 -2 -1547 18 -64 24 -130 84 -157 143 -17 38 -19 70 -19 367 0 366 1
369 76 443 45 44 77 63 131 76 22 5 671 9 1523 8 1483 -2 1485 -2 1530 -23z"/>
<path d="M2425 3929 c-276 -27 -514 -188 -640 -431 -67 -129 -88 -216 -88
-368 0 -96 5 -143 22 -205 74 -278 291 -495 576 -577 103 -29 295 -31 395 -4
294 80 502 279 586 561 22 75 27 111 27 210 1 135 -11 206 -56 315 -40 100
-87 171 -161 248 -178 187 -413 276 -661 251z m270 -84 c239 -65 423 -241 512
-486 24 -67 27 -88 27 -224 1 -132 -2 -159 -22 -220 -109 -325 -378 -525 -707
-526 -300 -1 -537 146 -674 420 -100 197 -96 447 11 661 74 149 243 299 398
356 131 47 324 55 455 19z"/>
<path d="M2428 3809 c-279 -30 -506 -219 -590 -489 -34 -111 -32 -283 5 -395
36 -110 89 -196 173 -279 82 -83 168 -136 279 -173 69 -23 96 -27 205 -27 109
0 136 4 205 27 111 37 198 90 280 172 82 83 136 169 172 280 33 104 38 262 10
372 -84 327 -404 549 -739 512z m156 -141 c119 -35 208 -140 223 -265 5 -43 2
-53 -22 -81 -54 -64 -117 -35 -143 67 -14 52 -24 70 -54 94 -64 51 -158 36
-211 -34 -15 -21 -21 -49 -25 -118 l-5 -91 199 -1 c218 0 254 -7 288 -52 19
-26 21 -44 24 -220 5 -246 0 -288 -39 -327 l-31 -30 -288 0 -288 0 -31 30
c-39 40 -43 71 -39 317 3 187 5 203 24 230 19 25 22 46 26 144 3 91 8 124 26
164 65 142 220 215 366 173z"/>
<path d="M2459 3619 c-57 -9 -98 -29 -139 -71 -54 -54 -70 -100 -70 -210 0
-98 0 -98 25 -98 25 0 25 1 25 88 1 127 34 190 122 227 123 51 254 -24 276
-158 6 -33 12 -43 30 -45 20 -3 22 1 22 38 0 55 -23 107 -68 153 -63 65 -134
89 -223 76z"/>
<path d="M2217 3162 c-15 -16 -17 -48 -17 -240 0 -209 1 -223 20 -242 19 -19
33 -20 280 -20 247 0 261 1 280 20 19 19 20 33 20 243 0 204 -2 225 -18 240
-16 15 -51 17 -284 17 -244 0 -266 -1 -281 -18z"/>
<path d="M975 1991 c-59 -27 -103 -78 -121 -138 -23 -78 -17 -614 8 -658 24
-45 68 -85 113 -106 38 -18 106 -19 1526 -19 l1487 0 53 28 c39 20 62 41 84
77 l30 48 0 316 c0 275 -2 320 -17 346 -24 45 -68 85 -113 106 -38 18 -106 19
-1525 19 -1417 0 -1487 -1 -1525 -19z m383 -173 c8 -8 12 -48 12 -112 l0 -100
74 73 c51 51 79 72 90 68 30 -12 16 -42 -51 -109 l-67 -68 96 0 c73 0 99 -4
108 -15 10 -12 10 -18 0 -30 -9 -11 -35 -15 -108 -15 l-96 0 68 -69 c45 -46
67 -75 64 -87 -7 -38 -38 -26 -108 42 l-70 67 0 -95 c0 -73 -4 -99 -15 -108
-12 -10 -18 -10 -30 0 -11 9 -15 35 -15 108 l0 96 -68 -67 c-67 -67 -97 -81
-109 -51 -4 11 17 39 68 90 l73 74 -101 0 c-77 0 -103 3 -113 15 -10 12 -10
18 0 30 9 11 35 15 108 15 l95 0 -67 70 c-68 70 -80 101 -42 108 12 3 41 -19
87 -64 l69 -68 0 95 c0 87 8 119 30 119 3 0 11 -5 18 -12z m770 0 c8 -8 12
-48 12 -112 l0 -100 74 73 c51 51 79 72 90 68 30 -12 16 -42 -51 -109 l-67
-68 96 0 c99 0 127 -11 114 -45 -4 -12 -26 -15 -108 -15 l-102 0 68 -69 c45
-46 67 -75 64 -87 -6 -35 -33 -25 -106 42 l-72 66 0 -94 c0 -103 -9 -130 -37
-112 -15 9 -19 29 -23 108 l-5 97 -65 -66 c-64 -65 -95 -79 -107 -49 -4 11 17
39 68 90 l73 74 -101 0 c-77 0 -103 3 -113 15 -10 12 -10 18 0 30 9 11 35 15
108 15 l95 0 -67 70 c-68 70 -80 101 -42 108 12 3 41 -19 87 -64 l69 -68 0 95
c0 87 8 119 30 119 3 0 11 -5 18 -12z m782 -7 c5 -11 10 -61 10 -113 l0 -92
74 73 c51 51 79 72 90 68 28 -11 17 -31 -54 -102 l-71 -70 103 -5 c102 -5 103
-5 103 -30 0 -25 0 -25 -104 -28 l-105 -3 74 -74 c50 -50 71 -78 67 -89 -12
-30 -43 -16 -107 49 l-65 66 -5 -97 c-4 -79 -8 -99 -23 -108 -28 -18 -37 9
-37 119 l0 99 -74 -73 c-51 -51 -79 -72 -90 -68 -30 12 -16 42 51 109 l67 68
-94 0 c-105 0 -132 9 -114 37 9 15 29 19 108 23 l97 5 -66 65 c-65 64 -79 95
-49 107 11 4 39 -17 90 -68 l74 -73 0 100 c0 64 4 104 12 112 17 17 26 15 38
-7z m770 0 c5 -11 10 -61 10 -113 l0 -92 73 72 c74 74 93 84 104 56 4 -11 -17
-39 -68 -90 l-73 -74 101 0 c89 0 104 -2 112 -18 18 -33 -6 -42 -113 -42
l-100 0 73 -74 c51 -51 72 -79 68 -90 -12 -30 -42 -16 -109 51 l-68 67 0 -90
c0 -101 -15 -139 -44 -115 -13 11 -16 34 -16 114 l0 101 -74 -73 c-51 -51 -79
-72 -90 -68 -28 11 -18 30 56 104 l72 73 -101 0 c-77 0 -103 3 -113 15 -10 12
-10 18 0 30 9 11 35 15 108 15 l95 0 -66 69 c-68 70 -80 97 -51 108 11 4 39
-17 90 -68 l74 -73 0 100 c0 64 4 104 12 112 17 17 26 15 38 -7z"/>
</g>
</svg>
